<?xml version="1.0" encoding="UTF-8" standalone="no"?>
<!-- License: PD. Made by puppylinux: https://github.com/puppylinux-woof-CE/puppy_icon_theme -->

<svg
   width="800px"
   height="800px"
   viewBox="0 0 100 100"
   version="1.1"
   id="svg2"
   sodipodi:docname="AV.svg"
   inkscape:version="1.4.2 (f4327f4, 2025-05-13)"
   xmlns:inkscape="http://www.inkscape.org/namespaces/inkscape"
   xmlns:sodipodi="http://sodipodi.sourceforge.net/DTD/sodipodi-0.dtd"
   xmlns="http://www.w3.org/2000/svg"
   xmlns:svg="http://www.w3.org/2000/svg">
  <defs
     id="defs2" />
  <sodipodi:namedview
     id="namedview2"
     pagecolor="#ffffff"
     bordercolor="#000000"
     borderopacity="0.25"
     inkscape:showpageshadow="2"
     inkscape:pageopacity="0.0"
     inkscape:pagecheckerboard="0"
     inkscape:deskcolor="#d1d1d1"
     inkscape:zoom="1.01875"
     inkscape:cx="400.4908"
     inkscape:cy="476.56442"
     inkscape:window-width="1920"
     inkscape:window-height="1017"
     inkscape:window-x="-8"
     inkscape:window-y="-8"
     inkscape:window-maximized="1"
     inkscape:current-layer="svg2"
     showguides="false" />
  <path
     id="rect2-9"
     style="fill:#000000;stroke:#090202;stroke-width:6.25;stroke-dasharray:none;stroke-opacity:1"
     d="m 59.201038,16.582346 c -2.313158,0.174342 -4.480033,3.374978 -5.285541,7.804455 -0.561691,2.752993 -0.365939,5.779215 -0.400528,8.67844 0.0049,16.357214 -0.0096,32.71489 0.0072,49.071813 0.089,4.686432 1.633438,9.079414 3.779717,10.745589 1.298835,1.140595 2.73367,0.805347 4.107679,0.852664 5.631887,-0.0057 11.26385,0.0016 16.895775,0.0023 4.239885,6.2e-4 8.479751,-0.0023 12.719549,-0.01721 2.295318,-0.182424 4.446234,-3.335408 5.262482,-7.719942 0.489205,-2.319333 0.422976,-4.880028 0.417254,-7.345967 -0.0047,-16.829543 0.0096,-33.659551 -0.0072,-50.488802 -0.09005,-4.686633 -1.632881,-9.081874 -3.78056,-10.74772 -1.328612,-1.160225 -2.795483,-0.79535 -4.199477,-0.852358 -9.813697,0.0084 -19.627613,-0.01674 -29.441176,0.01256 l -0.0463,0.0025 z"
     sodipodi:nodetypes="ccccccsccccccccc" />
  <text
     xml:space="preserve"
     style="font-style:normal;font-variant:normal;font-weight:normal;font-stretch:normal;font-size:51.7967px;font-family:'Times New Roman';-inkscape-font-specification:'Times New Roman, Normal';font-variant-ligatures:normal;font-variant-caps:normal;font-variant-numeric:normal;font-variant-east-asian:normal;text-align:start;writing-mode:lr-tb;direction:ltr;text-anchor:start;fill:#000000;fill-opacity:0.01;stroke:#090202;stroke-width:6.24999"
     x="78.716255"
     y="57.758137"
     id="text2-2"
     transform="scale(0.77960194,1.2827059)"><tspan
       sodipodi:role="line"
       id="tspan3"
       x="78.716255"
       y="57.758137"
       style="stroke-width:6.24999">V</tspan></text>
  <path
     style="font-variation-settings:normal;opacity:1;vector-effect:none;fill:#ffffff;fill-opacity:1;stroke:#e28989;stroke-width:0.125;stroke-linecap:butt;stroke-linejoin:miter;stroke-miterlimit:4;stroke-dasharray:none;stroke-dashoffset:0;stroke-opacity:1;-inkscape-stroke:none;stop-color:#000000;stop-opacity:1"
     d="m 8.4662581,66.50324 v -3.374059 l 0.3354962,-0.08503 c 0.1845246,-0.04676 0.8796653,-0.208513 1.5447587,-0.359443 l 1.209261,-0.274421 0.31653,-0.650268 c 0.17409,-0.357649 0.450382,-0.994227 0.613982,-1.41462 0.364123,-0.935663 10.443642,-29.678631 10.443642,-29.781309 0,-0.04032 0.931006,-0.0733 2.068902,-0.0733 h 2.068901 l 0.08256,0.24729 c 0.744824,2.230919 10.040876,29.238587 10.252757,29.787167 0.530254,1.372862 0.852312,1.858951 1.302383,1.965699 0.335331,0.07953 2.399914,0.282389 2.874037,0.282389 0.08269,0 0.138322,1.428653 0.138322,3.551979 V 69.8773 h -7.828276 -7.828275 v -3.550266 -3.550265 l 0.335497,-0.04091 c 0.184523,-0.0225 0.69687,-0.06248 1.138545,-0.08884 0.441679,-0.02636 0.828651,-0.06338 0.859944,-0.08225 0.05229,-0.03153 -0.902592,-2.960766 -1.082566,-3.320926 -0.07189,-0.143873 -0.369604,-0.157365 -3.472312,-0.157365 h -3.393673 l -0.558333,1.596141 c -0.307082,0.877879 -0.589635,1.663193 -0.627893,1.745141 -0.05856,0.125442 0.143488,0.166556 1.278075,0.260059 l 1.347635,0.111064 V 66.338092 69.8773 H 15.176207 8.4662581 Z M 24.415791,50.746071 c -0.0073,-0.220584 -0.392222,-1.28131 -0.48528,-1.33743 -0.0717,-0.04324 -0.241128,0.362285 -0.483623,1.157583 l -0.102822,0.337214 h 0.53848 c 0.415426,0 0.537282,-0.03596 0.533241,-0.157367 z"
     id="path3" />
  <path
     style="font-variation-settings:normal;opacity:1;vector-effect:none;fill:#ff0000;fill-opacity:1;stroke:#e28989;stroke-width:0.124999;stroke-linecap:butt;stroke-linejoin:miter;stroke-miterlimit:4;stroke-dasharray:none;stroke-dashoffset:0;stroke-opacity:1;-inkscape-stroke:none;stop-color:#000000;stop-opacity:1"
     d="M 7.5786622,96.279281 C 5.2950325,95.726272 3.1133186,93.668133 1.7677904,90.797546 0.93453615,89.019858 0.2811789,86.64573 0.01191988,84.417178 -0.09405807,83.54004 -0.12509646,74.916096 -0.09693632,54.17178 l 0.03939198,-29.018405 0.3623617,-1.666553 C 1.1282265,19.699846 2.5153833,16.950948 4.4944181,15.184382 5.5688698,14.225283 7.1136486,13.49389 8.4539038,13.309717 c 0.6186637,-0.08501 6.4403742,-0.115741 17.3553742,-0.0916 15.505897,0.03429 16.46534,0.04889 17.155885,0.261063 3.9192,1.204173 6.612251,5.477437 7.473176,11.858245 0.253431,1.878322 0.255371,57.422103 0.002,59.141104 -0.922575,6.260866 -3.361659,10.283944 -7.088201,11.691435 L 42.632685,96.44172 25.543293,96.46648 C 9.7272808,96.48939 8.3886855,96.47548 7.5786608,96.279281 Z M 41.514102,90.092025 c 0.788274,-0.856898 1.561738,-2.583344 1.992679,-4.447853 0.506532,-2.191566 0.539813,-4.400804 0.488894,-32.453987 -0.04909,-27.0466 -0.04919,-27.055645 -0.333568,-28.404909 -0.475838,-2.257749 -1.183001,-3.978003 -2.055408,-5 L 41.213925,19.325153 H 25.210968 9.2080091 l -0.4780397,0.600825 c -0.5943279,0.746979 -1.0517381,1.69079 -1.4845336,3.063155 -0.7418668,2.352408 -0.7148316,1.15026 -0.7174708,31.903095 -0.00266,30.92983 -0.03476,29.5354 0.7365722,31.991122 0.3777915,1.20279 1.1312327,2.660171 1.6271146,3.147325 l 0.3434678,0.337423 H 25.247628 41.260137 Z"
     id="path6" />
  <path
     style="font-variation-settings:normal;opacity:1;vector-effect:none;fill:#ff0000;fill-opacity:1;stroke:#e28989;stroke-width:1;stroke-linecap:butt;stroke-linejoin:miter;stroke-miterlimit:4;stroke-dasharray:none;stroke-dashoffset:0;stroke-opacity:1;-inkscape-stroke:none;stop-color:#000000;stop-opacity:1"
     d="m 70.882788,718.28221 c -7.168453,-9.09327 -14.202247,-27.6513 -16.050564,-42.34796 -0.716806,-5.69959 -1.209623,-72.82256 -1.514222,-206.241 -0.4673,-204.68362 0.189523,-264.74276 3.022032,-276.33138 2.714407,-11.10542 7.737739,-23.30045 12.580052,-30.54031 l 4.841561,-7.23874 H 201.58709 329.41254 l 3.63704,4.7692 c 5.21642,6.84023 10.04186,17.90206 13.62876,31.24262 l 3.11772,11.59554 0.97009,178.65031 c 1.04106,191.72081 0.22546,282.64967 -2.6743,298.14825 -2.69002,14.37752 -9.38833,31.0189 -15.441,38.36183 l -2.97783,3.61262 H 201.72881 73.784598 Z M 175.70552,530.6786 v -29.32141 l -9.80621,-0.69522 c -5.39342,-0.38237 -9.96315,-0.99142 -10.15497,-1.35344 -0.1918,-0.36203 1.65555,-6.29013 4.10525,-13.17356 l 4.45398,-12.51534 h 26.25655 c 17.88007,0 26.46735,0.34111 26.91735,1.06922 0.84626,1.36928 8.2894,23.43602 8.2894,24.57565 0,0.47201 -1.48122,0.8582 -3.29159,0.8582 -1.81038,0 -6.0067,0.28379 -9.32515,0.63063 l -6.03357,0.63063 V 530.69199 560 h 63.80369 63.80368 v -24.89367 c 0,-13.69152 -0.27028,-26.86553 -0.60061,-29.27556 l -0.6006,-4.38189 -11.62061,-1.09328 c -6.39134,-0.60129 -12.50563,-1.56692 -13.58732,-2.14582 -1.08169,-0.57891 -3.27978,-3.80863 -4.88464,-7.17718 -2.82354,-5.92654 -29.81275,-83.43573 -67.66696,-194.33002 l -18.33988,-53.72687 -16.19632,-4.3e-4 c -8.90797,-2.4e-4 -16.78943,0.37549 -17.51437,0.83494 -0.72493,0.45946 -9.39446,23.97416 -19.26562,52.25491 -42.09435,120.59968 -64.76069,184.51492 -68.445364,193.00436 -4.434761,10.21762 -2.453532,8.93691 -20.173415,13.04047 l -9.079755,2.10268 V 532.10633 560 h 54.478524 54.47853 z"
     id="path1"
     transform="scale(0.125)" />
</svg>
