<?xml version="1.0" encoding="UTF-8" standalone="no"?>
<!-- License: PD. Made by puppylinux: https://github.com/puppylinux-woof-CE/puppy_icon_theme -->

<svg
   width="800px"
   height="800px"
   viewBox="0 0 100 100"
   version="1.1"
   id="svg2"
   sodipodi:docname="graphe_run.svg"
   inkscape:version="1.4.2 (f4327f4, 2025-05-13)"
   xmlns:inkscape="http://www.inkscape.org/namespaces/inkscape"
   xmlns:sodipodi="http://sodipodi.sourceforge.net/DTD/sodipodi-0.dtd"
   xmlns="http://www.w3.org/2000/svg"
   xmlns:svg="http://www.w3.org/2000/svg">
  <defs
     id="defs2">
    <inkscape:path-effect
       effect="powerstroke"
       message=""
       id="path-effect2"
       is_visible="true"
       lpeversion="1.3"
       scale_width="1"
       interpolator_type="CubicBezierJohan"
       interpolator_beta="0.2"
       start_linecap_type="zerowidth"
       end_linecap_type="zerowidth"
       offset_points="3,2.3584906"
       linejoin_type="extrp_arc"
       miter_limit="4"
       not_jump="false"
       sort_points="true" />
    <inkscape:path-effect
       effect="fill_between_many"
       method="bsplinespiro"
       autoreverse="false"
       close="false"
       join="false"
       linkedpaths="#path2,0,1"
       id="path-effect3" />
  </defs>
  <sodipodi:namedview
     id="namedview2"
     pagecolor="#ffffff"
     bordercolor="#000000"
     borderopacity="0.25"
     inkscape:showpageshadow="2"
     inkscape:pageopacity="0.0"
     inkscape:pagecheckerboard="0"
     inkscape:deskcolor="#d1d1d1"
     inkscape:zoom="1.01875"
     inkscape:cx="400.4908"
     inkscape:cy="398.03681"
     inkscape:window-width="1920"
     inkscape:window-height="1017"
     inkscape:window-x="-8"
     inkscape:window-y="-8"
     inkscape:window-maximized="1"
     inkscape:current-layer="svg2"
     showguides="false" />
  <path
     id="rect2"
     style="fill:#cccccc;stroke:#090202;stroke-width:6.25;stroke-dasharray:none;stroke-opacity:1"
     d="m 10.558454,14.365544 c -3.6469525,0.112823 -7.063271,2.184074 -8.3332447,5.050553 -0.8855681,1.781564 -0.5769426,3.739944 -0.6314765,5.616141 0.0076,10.58536 -0.015209,21.17102 0.011411,31.756192 0.1403347,3.032764 2.5752955,5.875626 5.9591445,6.95387 2.0477582,0.738121 4.3099357,0.52117 6.4762137,0.551791 8.879299,-0.0037 17.758715,0.001 26.638072,0.0015 6.684654,4.01e-4 13.369274,-0.0015 20.053788,-0.01114 3.618823,-0.118054 7.009982,-2.158467 8.296887,-4.995861 0.771289,-1.500927 0.66687,-3.158048 0.657849,-4.753849 -0.0076,-10.891022 0.01521,-21.782345 -0.01141,-32.673178 -0.141962,-3.032895 -2.574417,-5.877218 -5.960476,-6.955249 -2.094704,-0.750825 -4.407391,-0.514701 -6.620941,-0.551593 -15.47239,0.0054 -30.945122,-0.01083 -46.417298,0.0081 l -0.073,0.0016 z"
     sodipodi:nodetypes="ccccccsccccccccc" />
  <rect
     width="35.4408"
     height="26.427427"
     fill="#ffffff"
     fill-opacity="0.01"
     id="rect1"
     x="18.15881"
     y="26.983397"
     style="fill:#ffffff;fill-opacity:0.01;stroke-width:1.27883;stroke-dasharray:none"
     ry="0" />
  <path
     d="m 6.2838619,39.343966 c 0,0 1.6069965,-11.994151 8.0349851,-11.994151 6.427989,0 7.674797,9.091566 8.478294,12.090105 0.803499,2.998537 3.047754,11.70629 8.672244,11.70629 2.99206,0 4.847202,-3.394252 5.928308,-6.571475 0.951163,-2.795334 1.026111,-5.230769 1.026111,-5.230769"
     stroke="#000000"
     stroke-width="8.3333"
     stroke-linecap="round"
     stroke-linejoin="round"
     id="path1"
     style="fill:#ff0000;fill-opacity:0.01;stroke:#e40101;stroke-width:5;stroke-dasharray:none;stroke-opacity:1"
     sodipodi:nodetypes="cssssc" />
  <path
     d="m 38.366259,39.664339 c 0,0 1.359431,-11.994254 6.79716,-11.994254 5.43773,0 6.458189,9.092958 7.172177,12.090208 0.716057,3.005942 3.068701,11.805959 7.336245,11.706392 2.526953,-0.05895 4.100468,-3.394281 5.015025,-6.571531 0.804635,-2.795358 0.868033,-5.230815 0.868033,-5.230815"
     stroke="#000000"
     stroke-width="8.3333"
     stroke-linecap="round"
     stroke-linejoin="round"
     id="path1-9-4"
     style="fill:#aa0000;fill-opacity:0.01;stroke:#dd0000;stroke-width:5;stroke-dasharray:none;stroke-opacity:1"
     sodipodi:nodetypes="cssssc" />
  <path
     inkscape:original-d="M 0,0"
     inkscape:path-effect="#path-effect3"
     d="M 54.542355,71.533743 87.862911,85.887456 54.175937,97.300614 v 0"
     id="path3"
     style="fill:#000000;stroke-width:0.951405"
     transform="matrix(1,0,0,1.1047619,0,-10.193398)" />
  <path
     style="fill:#090202;fill-opacity:0.01;fill-rule:nonzero;stroke:none;stroke-width:6.26431;stroke-dasharray:none;stroke-opacity:1"
     d="m 54.723926,71.533743 c 6.921222,2.967894 18.502357,8.238766 31.531664,14.225338 -24.84177,7.648317 -53.779177,16.431449 -66.494869,20.719869 6.768281,-2.28263 27.826827,-6.895704 34.595108,-9.178336 -6.768281,2.282632 -26.319423,11.365346 -33.087704,13.647976 13.010282,-4.38777 42.383741,-15.315978 67.151041,-24.403081 0,0 1.721164,-0.631251 1.721164,-0.631251 0,0 -1.669407,-0.665067 -1.669407,-0.665067 C 74.458489,79.664937 61.939143,74.627705 54.723926,71.533743 Z"
     id="path2"
     inkscape:path-effect="#path-effect2"
     inkscape:original-d="M 54.723926,71.533743 88.197235,85.887456 54.355829,97.300614 v 0"
     inkscape:linked-fill="path3"
     transform="matrix(0.99543658,0,0,1.1047619,0.0681569,-10.193398)"
     sodipodi:nodetypes="cccc" />
</svg>
