<?xml version="1.0" encoding="UTF-8" standalone="no"?>
<!-- License: MIT. Made by vmware: https://github.com/vmware/clarity-assets -->

<svg
   fill="#000000"
   width="800px"
   height="800px"
   viewBox="0 0 36 36"
   version="1.1"
   preserveAspectRatio="xMidYMid meet"
   id="svg1"
   sodipodi:docname="new-sym.svg"
   inkscape:version="1.4.2 (f4327f4, 2025-05-13)"
   xmlns:inkscape="http://www.inkscape.org/namespaces/inkscape"
   xmlns:sodipodi="http://sodipodi.sourceforge.net/DTD/sodipodi-0.dtd"
   xmlns="http://www.w3.org/2000/svg"
   xmlns:svg="http://www.w3.org/2000/svg"
   xmlns:rdf="http://www.w3.org/1999/02/22-rdf-syntax-ns#"
   xmlns:cc="http://creativecommons.org/ns#"
   xmlns:dc="http://purl.org/dc/elements/1.1/">
  <defs
     id="defs1" />
  <sodipodi:namedview
     id="namedview1"
     pagecolor="#ffffff"
     bordercolor="#000000"
     borderopacity="0.25"
     inkscape:showpageshadow="2"
     inkscape:pageopacity="0.0"
     inkscape:pagecheckerboard="0"
     inkscape:deskcolor="#d1d1d1"
     inkscape:zoom="1.01875"
     inkscape:cx="400.4908"
     inkscape:cy="400"
     inkscape:window-width="1920"
     inkscape:window-height="1017"
     inkscape:window-x="-8"
     inkscape:window-y="-8"
     inkscape:window-maximized="1"
     inkscape:current-layer="svg1" />
  <title
     id="title1">resistor-line</title>
  <path
     d="M29.43,26.34h0A1.47,1.47,0,0,1,28,25.22L24.86,13.15,21.74,25.22a1.49,1.49,0,0,1-1.45,1.12h0a1.49,1.49,0,0,1-1.46-1.12L15.71,13.15,12.6,25.22a1.51,1.51,0,0,1-2.91,0L6.57,13.15,5.22,18.37H2a1,1,0,0,1,0-2H3.67l1.45-5.59A1.48,1.48,0,0,1,6.57,9.66h0A1.47,1.47,0,0,1,8,10.78l3.12,12.07,3.12-12.07a1.49,1.49,0,0,1,1.45-1.12h0a1.49,1.49,0,0,1,1.46,1.12l3.12,12.07,3.12-12.07a1.5,1.5,0,0,1,2.9,0l3.12,12.07,1.35-5.22H34a1,1,0,0,1,0,2H32.33l-1.45,5.59A1.48,1.48,0,0,1,29.43,26.34Z"
     class="clr-i-outline clr-i-outline-path-1"
     id="path1"
     style="fill:#0000ff" />
  <rect
     x="0"
     y="0"
     width="36"
     height="36"
     fill-opacity="0"
     id="rect1"
     style="fill:#0000ff" />
  <path
     fill="#000000"
     fill-opacity="1"
     stroke-width="0.0288494"
     stroke-linejoin="round"
     d="m 31.490644,7.4182771 -0.835245,2.6414589 -0.03051,0.0011 -0.887854,-2.5773155 -1.340653,0.925635 1.641425,2.0777195 6.36e-4,0.03365 -2.388965,-0.449974 0.03205,1.699742 2.385183,-0.560333 0.01587,0.0331 -1.591965,2.164382 1.327584,0.809473 0.820322,-2.624052 0.0305,-0.0011 0.933286,2.558774 1.325716,-0.908243 -1.686209,-2.025515 -6.37e-4,-0.03366 2.463351,0.363009 -0.03205,-1.6997417 -2.429391,0.6293377 -6.36e-4,-0.03365 1.591013,-2.2148843 z"
     id="path1-2"
     inkscape:transform-center-x="0.012770931"
     inkscape:transform-center-y="0.028324305"
     style="fill:#ff0000" />
  <metadata
     id="metadata1">
    <rdf:RDF>
      <cc:Work
         rdf:about="">
        <dc:title>resistor-line</dc:title>
      </cc:Work>
    </rdf:RDF>
  </metadata>
</svg>
