<?xml version="1.0" encoding="UTF-8" standalone="no"?>
<!-- License: PD. Made by puppylinux: https://github.com/puppylinux-woof-CE/puppy_icon_theme -->

<svg
   width="800px"
   height="800px"
   viewBox="0 0 100 100"
   version="1.1"
   id="svg2"
   sodipodi:docname="open-sym.svg"
   inkscape:version="1.4.2 (f4327f4, 2025-05-13)"
   xmlns:inkscape="http://www.inkscape.org/namespaces/inkscape"
   xmlns:sodipodi="http://sodipodi.sourceforge.net/DTD/sodipodi-0.dtd"
   xmlns="http://www.w3.org/2000/svg"
   xmlns:svg="http://www.w3.org/2000/svg">
  <defs
     id="defs2" />
  <sodipodi:namedview
     id="namedview2"
     pagecolor="#ffffff"
     bordercolor="#000000"
     borderopacity="0.25"
     inkscape:showpageshadow="2"
     inkscape:pageopacity="0.0"
     inkscape:pagecheckerboard="0"
     inkscape:deskcolor="#d1d1d1"
     inkscape:zoom="1.01875"
     inkscape:cx="400.4908"
     inkscape:cy="400"
     inkscape:window-width="1920"
     inkscape:window-height="1017"
     inkscape:window-x="-8"
     inkscape:window-y="-8"
     inkscape:window-maximized="1"
     inkscape:current-layer="svg2" />
  <path
     style="fill:#d0cea9;stroke:#222222;stroke-width:2"
     d="m 3.2269939,87.263804 c 0,-1 0,-63 0,-63 0,0 -0.6,-5 4.4,-5 -1,0 5.6000001,0 5.6000001,0 v -6 c 0,0 0,-3 3,-3 h 17 c 0,0 3,0 3,3 v 6 h 43 c 0,0 4,0 4,4 v 64 z"
     id="path1" />
  <path
     d="m 82.495892,77.58383 v 0 A 3.9188751,4.2887861 0 0 1 78.683654,74.316183 L 70.312723,39.101455 61.995109,74.316183 a 3.9721932,4.3471371 0 0 1 -3.865556,3.267647 v 0 A 3.9721932,4.3471371 0 0 1 54.237336,74.316183 L 45.919724,39.101455 37.62877,74.316183 a 4.0255112,4.4054878 0 0 1 -7.757772,0 L 21.553385,39.101455 17.954418,54.331023 H 9.3702157 a 2.6659018,2.917542 0 0 1 0,-5.835084 h 4.4520553 l 3.865558,-16.309056 a 3.9455341,4.3179617 0 0 1 3.865556,-3.267648 v 0 a 3.9188751,4.2887861 0 0 1 3.81224,3.267648 l 8.317611,35.214725 8.317613,-35.214725 a 3.9721932,4.3471371 0 0 1 3.865557,-3.267648 v 0 a 3.9721932,4.3471371 0 0 1 3.892216,3.267648 l 8.317612,35.214725 8.317613,-35.214725 a 3.9988523,4.3763124 0 0 1 7.731115,0 l 8.317613,35.214725 3.598966,-15.229565 h 8.637521 a 2.6659014,2.9175416 0 0 1 0,5.835081 h -4.452055 l -3.865559,16.309059 a 3.9455341,4.3179617 0 0 1 -3.865556,3.267647 z"
     class="clr-i-outline clr-i-outline-path-1"
     id="path1-0"
     style="fill:#0000ff;stroke-width:2.78889" />
  <rect
     x="0"
     y="0"
     width="100"
     height="100"
     fill-opacity="0"
     id="rect1"
     style="stroke-width:2.77778" />
  <path
     style="fill:#e8dc88;fill-opacity:0.8;stroke:#222222;stroke-width:2"
     d="M 3.1875452,87.255418 18.187545,53.255414 c 0,0 1,-5 9,-5 11,0 65,0 65,0 0,0 9.000005,0 7,5 -2,5 -14,34.000004 -14,34.000004 z"
     id="path2" />
</svg>
