<?xml version="1.0" encoding="UTF-8" standalone="no"?>
<!-- License: MIT. Made by instructure-ui: https://github.com/instructure/instructure-ui -->

<svg
   fill="#000000"
   width="800px"
   height="800px"
   viewBox="0 0 1920 1920"
   version="1.1"
   id="svg1"
   sodipodi:docname="updown.svg"
   inkscape:version="1.4.2 (f4327f4, 2025-05-13)"
   xmlns:inkscape="http://www.inkscape.org/namespaces/inkscape"
   xmlns:sodipodi="http://sodipodi.sourceforge.net/DTD/sodipodi-0.dtd"
   xmlns="http://www.w3.org/2000/svg"
   xmlns:svg="http://www.w3.org/2000/svg">
  <defs
     id="defs1" />
  <sodipodi:namedview
     id="namedview1"
     pagecolor="#ffffff"
     bordercolor="#000000"
     borderopacity="0.25"
     inkscape:showpageshadow="2"
     inkscape:pageopacity="0.0"
     inkscape:pagecheckerboard="0"
     inkscape:deskcolor="#d1d1d1"
     inkscape:zoom="1.01875"
     inkscape:cx="400.4908"
     inkscape:cy="400"
     inkscape:window-width="1920"
     inkscape:window-height="1017"
     inkscape:window-x="-8"
     inkscape:window-y="-8"
     inkscape:window-maximized="1"
     inkscape:current-layer="svg1" />
  <g
     id="XMLID_21_"
     transform="matrix(2.9141495,0,0,4.9969255,104.00982,-268.07768)"
     style="stroke-width:0.628933">
	<path
   id="XMLID_904_"
   d="m 350.272,323.014 c -5.974,0 -11.411,-3.556 -13.783,-9.091 l -50.422,-117.65 -40.505,116.662 c -2.08,5.989 -7.699,10.023 -14.038,10.08 -0.044,0 -0.089,0 -0.133,0 -6.286,0 -11.911,-3.921 -14.081,-9.831 L 175.331,198.826 134.533,313.06 c -2.095,5.867 -7.599,9.828 -13.827,9.952 -6.242,0.127 -11.886,-3.615 -14.213,-9.394 L 75.011,235.446 H 0 v -30 h 85.141 c 6.121,0 11.627,3.719 13.914,9.396 l 20.511,50.93 41.446,-116.048 c 2.124,-5.947 7.745,-9.927 14.06,-9.955 0.022,0 0.044,0 0.066,0 6.289,0 11.912,3.923 14.081,9.831 l 41.779,113.814 39.431,-113.565 c 2.032,-5.851 7.451,-9.852 13.64,-10.071 6.203,-0.217 11.877,3.389 14.317,9.082 l 49.683,115.927 15.254,-48.815 c 1.957,-6.262 7.756,-10.526 14.317,-10.526 h 85.141 v 30 h -74.113 l -24.076,77.043 c -1.873,5.994 -7.281,10.186 -13.553,10.506 -0.255,0.012 -0.512,0.019 -0.767,0.019 z"
   style="stroke-width:0.628933" />

</g>
  <path
     d="m 1583.137,124.4908 -314.921,383.76807 94.6029,115.28418 153.4133,-186.94994 v 829.33379 l -153.4133,-186.9515 -94.6029,115.2842 314.921,383.7673 314.921,-383.7665 -94.6028,-115.285 -153.4135,186.9508 V 436.59236 l 153.4128,186.95069 94.6035,-115.28493 z"
     fill-rule="evenodd"
     id="path1"
     style="stroke-width:0.999999" />
</svg>
